<svg width="20" height="20" viewBox="0 0 20 20" fill="none" xmlns="http://www.w3.org/2000/svg">
<path fill-rule="evenodd" clip-rule="evenodd" d="M0 10C0 4.48 4.48 0 10 0C15.52 0 20 4.48 20 10C20 15.52 15.52 20 10 20C4.48 20 0 15.52 0 10ZM10 15C9.44771 15 9 15.4477 9 16C9 16.5523 9.44771 17 10 17C10.5523 17 11 16.5523 11 16C11 15.4477 10.5523 15 10 15ZM12.17 10.17C11.67 10.68 11.31 11.14 11.13 11.86C10.9759 12.4764 10.485 13 9.84965 13H11C11 13.5523 10.5523 14 10 14C9.44771 14 9 13.5523 9 13V12.5C9 12.427 9.00201 12.3545 9.00596 12.2826C9.0269 11.9011 9.10221 11.5349 9.22 11.19C9.42 10.61 9.75 10.09 10.17 9.67L11.41 8.41C11.87 7.97 12.09 7.31 11.96 6.61C11.83 5.89 11.27 5.28 10.57 5.08C9.46 4.77 8.43 5.4 8.1 6.35C7.98 6.72 7.67 7 7.28 7H6.98C6.4 7 6 6.44 6.16 5.88C6.59 4.41 7.84 3.29 9.39 3.05C10.91 2.81 12.36 3.6 13.26 4.85C14.44 6.48 14.09 8.23 13.07 9.25L12.17 10.17Z" fill="#858EBD"/>
</svg>
