<svg width="18" height="18" viewBox="0 0 18 18" fill="none" xmlns="http://www.w3.org/2000/svg">
<path fill-rule="evenodd" clip-rule="evenodd" d="M0.531 8.622L8.631 0.522C8.955 0.198 9.405 0 9.9 0H16.2C17.19 0 18 0.81 18 1.8V8.1C18 8.595 17.802 9.045 17.469 9.378L9.369 17.478C9.045 17.802 8.595 18 8.1 18C7.605 18 7.155 17.802 6.831 17.469L0.531 11.169C0.198 10.845 0 10.395 0 9.9C0 9.405 0.207001 8.946 0.531 8.622ZM14.85 4.5C15.597 4.5 16.2 3.897 16.2 3.15C16.2 2.403 15.597 1.8 14.85 1.8C14.103 1.8 13.5 2.403 13.5 3.15C13.5 3.897 14.103 4.5 14.85 4.5Z" fill="#858EBD"/>
</svg>
