<svg width="33" height="38" viewBox="0 0 33 38" fill="none" xmlns="http://www.w3.org/2000/svg">
<path fill-rule="evenodd" clip-rule="evenodd" d="M32.7149 26.3223V11.1153C32.7149 9.97645 32.1074 8.9241 31.1208 8.35451L17.9515 0.751199C16.9653 0.181607 15.7499 0.181607 14.7637 0.751199L1.59373 8.35451C0.607469 8.9241 -3.05176e-05 9.97645 -3.05176e-05 11.1153V26.3223C-3.05176e-05 27.4611 0.607469 28.5138 1.59373 29.0831L14.7637 36.6864C15.7499 37.256 16.9653 37.256 17.9515 36.6864L31.1208 29.0831C32.1074 28.5138 32.7149 27.4611 32.7149 26.3223" fill="url(#paint0_linear_1004_5264)"/>
<path fill-rule="evenodd" clip-rule="evenodd" d="M27.1294 12.0485C27.0584 11.9257 26.9318 11.8528 26.7898 11.8528H24.1706C23.8959 11.8528 23.6396 12.0009 23.5025 12.2391L18.5959 20.7489L16.474 17.1807L19.2031 12.4409C19.274 12.3178 19.2737 12.1713 19.2027 12.0485C19.1318 11.9257 19.0051 11.8528 18.8632 11.8528H16.244C15.9692 11.8528 15.7133 12.0009 15.5759 12.2391L10.6692 20.7489L8.50134 17.1033C8.21039 16.6156 7.67514 16.3124 7.10458 16.3124C6.81395 16.3124 6.52754 16.3914 6.27644 16.5411C5.50791 16.9996 5.25551 17.9982 5.71397 18.767L9.30324 24.7937C9.59452 25.282 10.1281 25.5849 10.6968 25.5849C11.2787 25.5804 11.8185 25.2681 12.1042 24.7704L14.6172 20.4061L17.2299 24.7937C17.5212 25.282 18.0548 25.5849 18.6234 25.5849C19.2053 25.5804 19.7451 25.2681 20.0309 24.7704L27.1297 12.4409C27.2007 12.3178 27.2004 12.1713 27.1294 12.0485" fill="white"/>
<defs>
<linearGradient id="paint0_linear_1004_5264" x1="16.3574" y1="55.5083" x2="52.895" y2="23.0175" gradientUnits="userSpaceOnUse">
<stop stop-color="#4F8AFF"/>
<stop offset="1" stop-color="#4B5EFF"/>
</linearGradient>
</defs>
</svg>
