<svg width="128" height="60" viewBox="0 0 128 60" fill="none" xmlns="http://www.w3.org/2000/svg">
<g filter="url(#filter0_d_0_4724)">
<g filter="url(#filter1_d_0_4724)">
<path fill-rule="evenodd" clip-rule="evenodd" d="M43.7149 33.3222V18.1153C43.7149 16.9764 43.1074 15.9241 42.1208 15.3545L28.9515 7.75117C27.9653 7.18158 26.75 7.18158 25.7637 7.75117L12.5938 15.3545C11.6075 15.9241 11 16.9764 11 18.1153V33.3222C11 34.4611 11.6075 35.5138 12.5938 36.083L25.7637 43.6863C26.75 44.2559 27.9653 44.2559 28.9515 43.6863L42.1208 36.083C43.1074 35.5138 43.7149 34.4611 43.7149 33.3222" fill="url(#paint0_linear_0_4724)"/>
</g>
<path fill-rule="evenodd" clip-rule="evenodd" d="M38.1295 19.0485C38.0586 18.9257 37.9319 18.8528 37.79 18.8528H35.1708C34.896 18.8528 34.6397 19.0009 34.5027 19.239L29.596 27.7489L27.4742 24.1806L30.2032 19.4408C30.2742 19.3177 30.2738 19.1713 30.2029 19.0485C30.1319 18.9257 30.0052 18.8528 29.8633 18.8528H27.2441C26.9694 18.8528 26.7134 19.0009 26.576 19.239L21.6694 27.7489L19.5015 24.1032C19.2105 23.6156 18.6753 23.3123 18.1047 23.3123C17.8141 23.3123 17.5277 23.3914 17.2766 23.5411C16.5081 23.9995 16.2557 24.9981 16.7141 25.7669L20.3034 31.7937C20.5947 32.2819 21.1283 32.5849 21.6969 32.5849C22.2788 32.5803 22.8186 32.268 23.1044 31.7703L25.6173 27.4061L28.23 31.7937C28.5213 32.2819 29.055 32.5849 29.6236 32.5849C30.2055 32.5803 30.7453 32.268 31.031 31.7703L38.1299 19.4408C38.2008 19.3177 38.2005 19.1713 38.1295 19.0485" fill="white"/>
</g>
<path fill-rule="evenodd" clip-rule="evenodd" d="M57.0402 31.9999C57.2322 31.9999 57.3822 31.9519 57.4902 31.8559C57.5982 31.7599 57.6762 31.6519 57.7242 31.5319L59.5062 26.5459L61.2882 31.5319C61.3242 31.6519 61.3962 31.7599 61.5042 31.8559C61.6122 31.9519 61.7622 31.9999 61.9542 31.9999H63.7722C63.9642 31.9999 64.1262 31.9429 64.2582 31.8289C64.3902 31.7149 64.4682 31.5739 64.4922 31.4059L66.4182 19.8859V19.7779C66.4182 19.6819 66.3822 19.5949 66.3102 19.5169C66.2382 19.4389 66.1482 19.3999 66.0402 19.3999H63.6822C63.5022 19.3999 63.3702 19.4329 63.2862 19.4989C63.2022 19.5649 63.1482 19.6699 63.1242 19.8139L62.0082 26.5999L60.7662 22.6759C60.6702 22.3519 60.4722 22.1899 60.1722 22.1899H58.8222C58.5222 22.1899 58.3242 22.3519 58.2282 22.6759L56.9862 26.6179L55.8882 19.8139C55.8522 19.5379 55.6602 19.3999 55.3122 19.3999H52.9542C52.8582 19.3999 52.7712 19.4389 52.6932 19.5169C52.6152 19.5949 52.5762 19.6819 52.5762 19.7779C52.5762 19.8259 52.5822 19.8619 52.5942 19.8859L54.5202 31.4059C54.5442 31.5739 54.6192 31.7149 54.7452 31.8289C54.8712 31.9429 55.0362 31.9999 55.2402 31.9999H57.0402ZM77.3082 31.9999C77.4402 31.9999 77.5512 31.9579 77.6412 31.8739C77.7312 31.7899 77.7762 31.6819 77.7762 31.5499V29.7679C77.7762 29.6359 77.7312 29.5249 77.6412 29.4349C77.5512 29.3449 77.4402 29.2999 77.3082 29.2999H71.4762V26.9599H76.7682C76.9002 26.9599 77.0112 26.9149 77.1012 26.8249C77.1912 26.7349 77.2362 26.6239 77.2362 26.4919V24.8539C77.2362 24.7219 77.1912 24.6109 77.1012 24.5209C77.0112 24.4309 76.9002 24.3859 76.7682 24.3859H71.4762V22.0999H77.1642C77.2962 22.0999 77.4072 22.0579 77.4972 21.9739C77.5872 21.8899 77.6322 21.7819 77.6322 21.6499V19.8679C77.6322 19.7359 77.5872 19.6249 77.4972 19.5349C77.4072 19.4449 77.2962 19.3999 77.1642 19.3999H68.6682C68.5362 19.3999 68.4282 19.4449 68.3442 19.5349C68.2602 19.6249 68.2182 19.7359 68.2182 19.8679V31.5499C68.2182 31.6699 68.2632 31.7749 68.3532 31.8649C68.4432 31.9549 68.5482 31.9999 68.6682 31.9999H77.3082ZM82.0242 31.6039C81.9042 31.8679 81.7002 31.9999 81.4122 31.9999H79.0722C78.9762 31.9999 78.8892 31.9609 78.8112 31.8829C78.7332 31.8049 78.6942 31.7179 78.6942 31.6219C78.6942 31.5499 78.7002 31.4959 78.7122 31.4599L82.9062 19.9219C83.0262 19.5739 83.2662 19.3999 83.6262 19.3999H86.4342C86.7942 19.3999 87.0342 19.5739 87.1542 19.9219L91.3482 31.4599C91.3602 31.4959 91.3662 31.5499 91.3662 31.6219C91.3662 31.7179 91.3272 31.8049 91.2492 31.8829C91.1712 31.9609 91.0842 31.9999 90.9882 31.9999H88.6482C88.3602 31.9999 88.1562 31.8679 88.0362 31.6039L87.3882 29.8579H82.6722L82.0242 31.6039ZM83.4282 27.1579L85.0302 22.5679L86.6322 27.1579H83.4282ZM101.887 31.8739C101.797 31.9579 101.686 31.9999 101.554 31.9999H93.1842C93.0642 31.9999 92.9592 31.9549 92.8692 31.8649C92.7792 31.7749 92.7342 31.6699 92.7342 31.5499V19.8499C92.7342 19.7179 92.7792 19.6099 92.8692 19.5259C92.9592 19.4419 93.0642 19.3999 93.1842 19.3999H95.7042C95.8362 19.3999 95.9442 19.4419 96.0282 19.5259C96.1122 19.6099 96.1542 19.7179 96.1542 19.8499V29.1739H101.554C101.686 29.1739 101.797 29.2189 101.887 29.3089C101.977 29.3989 102.022 29.5099 102.022 29.6419V31.5499C102.022 31.6819 101.977 31.7899 101.887 31.8739ZM109.276 31.9999C109.408 31.9999 109.519 31.9579 109.609 31.8739C109.699 31.7899 109.744 31.6819 109.744 31.5499V22.3339H112.912C113.044 22.3339 113.155 22.2919 113.245 22.2079C113.335 22.1239 113.38 22.0159 113.38 21.8839V19.8679C113.38 19.7359 113.335 19.6249 113.245 19.5349C113.155 19.4449 113.044 19.3999 112.912 19.3999H103.138C103.006 19.3999 102.895 19.4449 102.805 19.5349C102.715 19.6249 102.67 19.7359 102.67 19.8679V21.8839C102.67 22.0159 102.715 22.1239 102.805 22.2079C102.895 22.2919 103.006 22.3339 103.138 22.3339H106.306V31.5499C106.306 31.6819 106.351 31.7899 106.441 31.8739C106.531 31.9579 106.642 31.9999 106.774 31.9999H109.276ZM118.213 31.8739C118.123 31.9579 118.012 31.9999 117.88 31.9999H115.414C115.282 31.9999 115.174 31.9579 115.09 31.8739C115.006 31.7899 114.964 31.6819 114.964 31.5499V19.8679C114.964 19.7359 115.006 19.6249 115.09 19.5349C115.174 19.4449 115.282 19.3999 115.414 19.3999H117.88C118.012 19.3999 118.123 19.4449 118.213 19.5349C118.303 19.6249 118.348 19.7359 118.348 19.8679V24.1339H122.596V19.8679C122.596 19.7359 122.641 19.6249 122.731 19.5349C122.821 19.4449 122.932 19.3999 123.064 19.3999H125.512C125.644 19.3999 125.755 19.4449 125.845 19.5349C125.935 19.6249 125.98 19.7359 125.98 19.8679V31.5499C125.98 31.6819 125.935 31.7899 125.845 31.8739C125.755 31.9579 125.644 31.9999 125.512 31.9999H123.064C122.932 31.9999 122.821 31.9579 122.731 31.8739C122.641 31.7899 122.596 31.6819 122.596 31.5499V27.1399H118.348V31.5499C118.348 31.6819 118.303 31.7899 118.213 31.8739Z" fill="#323959"/>
<defs>
<!-- <filter id="filter0_d_0_4724" x="8" y="6.32397" width="38.7148" height="42.7896" filterUnits="userSpaceOnUse" color-interpolation-filters="sRGB">
<feFlood flood-opacity="0" result="BackgroundImageFix"/>
<feColorMatrix in="SourceAlpha" type="matrix" values="0 0 0 0 0 0 0 0 0 0 0 0 0 0 0 0 0 0 127 0" result="hardAlpha"/>
<feOffset dy="2"/>
<feGaussianBlur stdDeviation="1.5"/>
<feColorMatrix type="matrix" values="0 0 0 0 0.736838 0 0 0 0 0.781525 0 0 0 0 0.925611 0 0 0 0.403655 0"/>
<feBlend mode="normal" in2="BackgroundImageFix" result="effect1_dropShadow_0_4724"/>
<feBlend mode="normal" in="SourceGraphic" in2="effect1_dropShadow_0_4724" result="shape"/>
</filter> -->
<filter id="filter1_d_0_4724" x="0" y="0.323975" width="54.7148" height="58.7896" filterUnits="userSpaceOnUse" color-interpolation-filters="sRGB">
<feFlood flood-opacity="0" result="BackgroundImageFix"/>
<feColorMatrix in="SourceAlpha" type="matrix" values="0 0 0 0 0 0 0 0 0 0 0 0 0 0 0 0 0 0 127 0" result="hardAlpha"/>
<feOffset dy="4"/>
<feGaussianBlur stdDeviation="5.5"/>
<feColorMatrix type="matrix" values="0 0 0 0 0.736838 0 0 0 0 0.781525 0 0 0 0 0.925611 0 0 0 0.321651 0"/>
<feBlend mode="normal" in2="BackgroundImageFix" result="effect1_dropShadow_0_4724"/>
<feBlend mode="normal" in="SourceGraphic" in2="effect1_dropShadow_0_4724" result="shape"/>
</filter>
<linearGradient id="paint0_linear_0_4724" x1="27.3575" y1="62.5083" x2="63.895" y2="30.0175" gradientUnits="userSpaceOnUse">
<stop stop-color="#4F8AFF"/>
<stop offset="1" stop-color="#4B5EFF"/>
</linearGradient>
</defs>
</svg>
