<svg width="117" height="38" viewBox="0 0 117 38" fill="none" xmlns="http://www.w3.org/2000/svg">
<path fill-rule="evenodd" clip-rule="evenodd" d="M32.7149 26.3222V11.1153C32.7149 9.97642 32.1074 8.92407 31.1208 8.35448L17.9515 0.751169C16.9653 0.181577 15.75 0.181577 14.7637 0.751169L1.59376 8.35448C0.6075 8.92407 0 9.97642 0 11.1153V26.3222C0 27.4611 0.6075 28.5138 1.59376 29.083L14.7637 36.6863C15.75 37.2559 16.9653 37.2559 17.9515 36.6863L31.1208 29.083C32.1074 28.5138 32.7149 27.4611 32.7149 26.3222" fill="url(#paint0_linear_0_4738)"/>
<path fill-rule="evenodd" clip-rule="evenodd" d="M27.1295 12.0485C27.0586 11.9257 26.9319 11.8528 26.79 11.8528H24.1708C23.896 11.8528 23.6397 12.0009 23.5027 12.239L18.596 20.7489L16.4742 17.1806L19.2032 12.4408C19.2742 12.3177 19.2738 12.1713 19.2029 12.0485C19.1319 11.9257 19.0052 11.8528 18.8633 11.8528H16.2441C15.9694 11.8528 15.7134 12.0009 15.576 12.239L10.6694 20.7489L8.50149 17.1032C8.21054 16.6156 7.67529 16.3123 7.10472 16.3123C6.8141 16.3123 6.52768 16.3914 6.27658 16.5411C5.50805 16.9995 5.25566 17.9981 5.71412 18.7669L9.30339 24.7937C9.59466 25.2819 10.1283 25.5849 10.6969 25.5849C11.2788 25.5803 11.8186 25.268 12.1044 24.7703L14.6173 20.4061L17.23 24.7937C17.5213 25.2819 18.055 25.5849 18.6236 25.5849C19.2055 25.5803 19.7453 25.268 20.031 24.7703L27.1299 12.4408C27.2008 12.3177 27.2005 12.1713 27.1295 12.0485" fill="white"/>
<path fill-rule="evenodd" clip-rule="evenodd" d="M46.0402 24.9999C46.2322 24.9999 46.3822 24.9519 46.4902 24.8559C46.5982 24.7599 46.6762 24.6519 46.7242 24.5319L48.5062 19.5459L50.2882 24.5319C50.3242 24.6519 50.3962 24.7599 50.5042 24.8559C50.6122 24.9519 50.7622 24.9999 50.9542 24.9999H52.7722C52.9642 24.9999 53.1262 24.9429 53.2582 24.8289C53.3902 24.7149 53.4682 24.5739 53.4922 24.4059L55.4182 12.8859V12.7779C55.4182 12.6819 55.3822 12.5949 55.3102 12.5169C55.2382 12.4389 55.1482 12.3999 55.0402 12.3999H52.6822C52.5022 12.3999 52.3702 12.4329 52.2862 12.4989C52.2022 12.5649 52.1482 12.6699 52.1242 12.8139L51.0082 19.5999L49.7662 15.6759C49.6702 15.3519 49.4722 15.1899 49.1722 15.1899H47.8222C47.5222 15.1899 47.3242 15.3519 47.2282 15.6759L45.9862 19.6179L44.8882 12.8139C44.8522 12.5379 44.6602 12.3999 44.3122 12.3999H41.9542C41.8582 12.3999 41.7712 12.4389 41.6932 12.5169C41.6152 12.5949 41.5762 12.6819 41.5762 12.7779C41.5762 12.8259 41.5822 12.8619 41.5942 12.8859L43.5202 24.4059C43.5442 24.5739 43.6192 24.7149 43.7452 24.8289C43.8712 24.9429 44.0362 24.9999 44.2402 24.9999H46.0402ZM66.3082 24.9999C66.4402 24.9999 66.5512 24.9579 66.6412 24.8739C66.7312 24.7899 66.7762 24.6819 66.7762 24.5499V22.7679C66.7762 22.6359 66.7312 22.5249 66.6412 22.4349C66.5512 22.3449 66.4402 22.2999 66.3082 22.2999H60.4762V19.9599H65.7682C65.9002 19.9599 66.0112 19.9149 66.1012 19.8249C66.1912 19.7349 66.2362 19.6239 66.2362 19.4919V17.8539C66.2362 17.7219 66.1912 17.6109 66.1012 17.5209C66.0112 17.4309 65.9002 17.3859 65.7682 17.3859H60.4762V15.0999H66.1642C66.2962 15.0999 66.4072 15.0579 66.4972 14.9739C66.5872 14.8899 66.6322 14.7819 66.6322 14.6499V12.8679C66.6322 12.7359 66.5872 12.6249 66.4972 12.5349C66.4072 12.4449 66.2962 12.3999 66.1642 12.3999H57.6682C57.5362 12.3999 57.4282 12.4449 57.3442 12.5349C57.2602 12.6249 57.2182 12.7359 57.2182 12.8679V24.5499C57.2182 24.6699 57.2632 24.7749 57.3532 24.8649C57.4432 24.9549 57.5482 24.9999 57.6682 24.9999H66.3082ZM71.0242 24.6039C70.9042 24.8679 70.7002 24.9999 70.4122 24.9999H68.0722C67.9762 24.9999 67.8892 24.9609 67.8112 24.8829C67.7332 24.8049 67.6942 24.7179 67.6942 24.6219C67.6942 24.5499 67.7002 24.4959 67.7122 24.4599L71.9062 12.9219C72.0262 12.5739 72.2662 12.3999 72.6262 12.3999H75.4342C75.7942 12.3999 76.0342 12.5739 76.1542 12.9219L80.3482 24.4599C80.3602 24.4959 80.3662 24.5499 80.3662 24.6219C80.3662 24.7179 80.3272 24.8049 80.2492 24.8829C80.1712 24.9609 80.0842 24.9999 79.9882 24.9999H77.6482C77.3602 24.9999 77.1562 24.8679 77.0362 24.6039L76.3882 22.8579H71.6722L71.0242 24.6039ZM72.4282 20.1579L74.0302 15.5679L75.6322 20.1579H72.4282ZM90.8872 24.8739C90.7972 24.9579 90.6862 24.9999 90.5542 24.9999H82.1842C82.0642 24.9999 81.9592 24.9549 81.8692 24.8649C81.7792 24.7749 81.7342 24.6699 81.7342 24.5499V12.8499C81.7342 12.7179 81.7792 12.6099 81.8692 12.5259C81.9592 12.4419 82.0642 12.3999 82.1842 12.3999H84.7042C84.8362 12.3999 84.9442 12.4419 85.0282 12.5259C85.1122 12.6099 85.1542 12.7179 85.1542 12.8499V22.1739H90.5542C90.6862 22.1739 90.7972 22.2189 90.8872 22.3089C90.9772 22.3989 91.0222 22.5099 91.0222 22.6419V24.5499C91.0222 24.6819 90.9772 24.7899 90.8872 24.8739ZM98.2762 24.9999C98.4082 24.9999 98.5192 24.9579 98.6092 24.8739C98.6992 24.7899 98.7442 24.6819 98.7442 24.5499V15.3339H101.912C102.044 15.3339 102.155 15.2919 102.245 15.2079C102.335 15.1239 102.38 15.0159 102.38 14.8839V12.8679C102.38 12.7359 102.335 12.6249 102.245 12.5349C102.155 12.4449 102.044 12.3999 101.912 12.3999H92.1382C92.0062 12.3999 91.8952 12.4449 91.8052 12.5349C91.7152 12.6249 91.6702 12.7359 91.6702 12.8679V14.8839C91.6702 15.0159 91.7152 15.1239 91.8052 15.2079C91.8952 15.2919 92.0062 15.3339 92.1382 15.3339H95.3062V24.5499C95.3062 24.6819 95.3512 24.7899 95.4412 24.8739C95.5312 24.9579 95.6422 24.9999 95.7742 24.9999H98.2762ZM107.213 24.8739C107.123 24.9579 107.012 24.9999 106.88 24.9999H104.414C104.282 24.9999 104.174 24.9579 104.09 24.8739C104.006 24.7899 103.964 24.6819 103.964 24.5499V12.8679C103.964 12.7359 104.006 12.6249 104.09 12.5349C104.174 12.4449 104.282 12.3999 104.414 12.3999H106.88C107.012 12.3999 107.123 12.4449 107.213 12.5349C107.303 12.6249 107.348 12.7359 107.348 12.8679V17.1339H111.596V12.8679C111.596 12.7359 111.641 12.6249 111.731 12.5349C111.821 12.4449 111.932 12.3999 112.064 12.3999H114.512C114.644 12.3999 114.755 12.4449 114.845 12.5349C114.935 12.6249 114.98 12.7359 114.98 12.8679V24.5499C114.98 24.6819 114.935 24.7899 114.845 24.8739C114.755 24.9579 114.644 24.9999 114.512 24.9999H112.064C111.932 24.9999 111.821 24.9579 111.731 24.8739C111.641 24.7899 111.596 24.6819 111.596 24.5499V20.1399H107.348V24.5499C107.348 24.6819 107.303 24.7899 107.213 24.8739Z" fill="white"/>
<defs>
<linearGradient id="paint0_linear_0_4738" x1="16.3575" y1="55.5083" x2="52.895" y2="23.0175" gradientUnits="userSpaceOnUse">
<stop stop-color="#4F8AFF"/>
<stop offset="1" stop-color="#4B5EFF"/>
</linearGradient>
</defs>
</svg>
